<svg xmlns="http://www.w3.org/2000/svg" width="370" height="370"><path d="M120.4 43c-4.3 1.3-6 3.6-13 16.8l-6 11.7-5-.2c-2.7-.1-12.4-.7-21.5-1.4-20.6-1.5-27.9-1-35.5 2.5A39.9 39.9 0 0 0 17 98.1c-1.8 5.7-2 11.6-2.9 69.3-1.7 114-1.7 120.2.7 127.2 4 12 13.2 22.6 23.9 27.3 8.9 4 14.8 4.5 32 2.7A93175 93175 0 0 1 230 308.5c46.2-4.6 52.1-5.5 57-8 4.2-2.2 10-7.5 10-9.1 0-.8-.1-1.4-.3-1.4l-5.7 1.5a93.3 93.3 0 0 1-49.5-4.4c-2.8-1-6.3-1.7-8-1.4L194 289l-87 7.1c-29 2.5-52 4-54 3.6-2-.4-5.5-2.3-7.7-4.2-7.5-6.4-7.3-5.2-7.2-51.7 0-22.7.4-62.7.8-88.8.6-46.6.7-47.6 2.9-51.7 3-5.6 8.1-9.4 13.7-10 2.4-.3 13.1 0 23.7.6a25227.5 25227.5 0 0 0 113.5 6.6l41.2 2.5 9.3-3.2c8.9-3 10-3.2 24.5-3.3 11 0 15.3-.3 15.3-1.2 0-1.1-9-8.3-10.5-8.3-.4 0-3-2-5.5-4.4-5.7-5.4-10.8-7-20.7-6.4-5.8.3-7.6.8-9.6 2.6a6.6 6.6 0 0 1-5.7 2c-3-.3-3.7-1-9.5-12-6.7-12.7-8.5-15.2-12.8-17.5-2-1-16.3-2.8-41.5-5.4-41.5-4.1-42.1-4.2-46.8-2.8m134.2 61.4a74.6 74.6 0 0 0-40.1 22 89.5 89.5 0 0 0-25.5 65.2 95.8 95.8 0 0 0 29.8 71.5 76.5 76.5 0 0 0 78 19.3 69.4 69.4 0 0 0 29.8-19 87.5 87.5 0 0 0 26.7-66.5c0-37-19.6-70-51.2-86a80.7 80.7 0 0 0-47.5-6.5m-97.1 4.5c-29 4-51.8 24-62 54.2a86.6 86.6 0 0 0-4.2 33.6c1.7 38.3 27.6 72.8 61.4 81.7 7.5 2 23 3 26.3 1.7l2.5-1-3.3-1.8A103 103 0 0 1 154 259a150.6 150.6 0 0 0-13.7-12.4 67.8 67.8 0 0 1-24.9-38.1 84 84 0 0 1 0-32.5 65.7 65.7 0 0 1 24.2-36 143 143 0 0 0 13.6-12.4 79 79 0 0 1 16.1-13c3.8-2.2 6.5-4.2 6-4.6-1.3-1.3-11.4-1.9-17.8-1m32.5 1.5a67 67 0 0 0-31 17.3 89.3 89.3 0 0 0-24.4 43.3 95.1 95.1 0 0 0 31 92.2c8.3 6.7 14.5 10 25.4 13.8a49 49 0 0 0 20.8 3.2c12.5 0 15.8-1.1 11.2-4-1.4-1-6.6-5.7-11.5-10.7-7.3-7.3-10.1-9.5-14.7-11.2-24.3-9-40-31.3-41.5-58.9a61.2 61.2 0 0 1 6.6-33c7-14.1 18-24.2 31.2-28.7 5.7-2 7.5-3.2 16.6-12.6 5.7-5.8 10-10.9 9.7-11.3-.8-1.4-24.3-.9-29.4.6m67.4 28.4c-7.9 2.7-13.6 6.5-20 13.3a60.6 60.6 0 0 0-7.7 70c14 26.9 44.5 37.2 68 23.2a44.4 44.4 0 0 0 16.4-16 56.4 56.4 0 0 0 9-25.8c3.3-28.4-12.3-55.5-37-64.2-8.2-3-21-3.2-28.7-.5" fill="#fffcfc" fill-rule="evenodd"/></svg>